<svg id="Group_452" data-name="Group 452" xmlns="http://www.w3.org/2000/svg" xmlns:xlink="http://www.w3.org/1999/xlink" width="171.195" height="170.392" viewBox="0 0 171.195 170.392">
  <defs>
    <clipPath id="clip-path">
      <rect id="Rectangle_236" data-name="Rectangle 236" width="171.195" height="170.392" fill="none"/>
    </clipPath>
  </defs>
  <g id="Group_451" data-name="Group 451" clip-path="url(#clip-path)">
    <path id="Path_347" data-name="Path 347" d="M132.241,102.872c7.715,0,13.97,5.628,13.97,12.571s-6.255,12.572-13.97,12.572-13.97-5.629-13.97-12.572,6.255-12.571,13.97-12.571" fill="#582a5b"/>
    <path id="Path_348" data-name="Path 348" d="M40.844,76.726A15.08,15.08,0,0,1,35.591,79.8,231.172,231.172,0,0,1,1.406,88.814H1.34l-.484.112Q.772,87.061.772,85.2a85.105,85.105,0,0,1,2.5-20.59c.346-1.415.737-2.793,1.154-4.2l.353-.046a143.3,143.3,0,0,1,18.876-1.378S39.185,58.5,43.216,66.5a8.206,8.206,0,0,1-2.372,10.226" fill="#ea9010"/>
    <path id="Path_349" data-name="Path 349" d="M77.5,121.967a57.752,57.752,0,0,1-16.053,1.481,109.271,109.271,0,0,1-16.325-1.6c-19.063-3.241-28.414-2.962-29.941-2.878a2.279,2.279,0,0,0-.437,0,57.742,57.742,0,0,0-6.421,1.322q-.989-2.188-1.863-4.442c3.558-2.264,8.978-5.829,17.257-11.454a73.6,73.6,0,0,1,11.428-6.343,86.253,86.253,0,0,1,38.992-7.2s17.786.875,21.418,12.824-18.055,18.3-18.055,18.3" fill="#ea9010"/>
    <path id="Path_350" data-name="Path 350" d="M171.2,85.18v85.212H85.977a84.893,84.893,0,0,1-58.123-22.919c3.184-.634,5.417-1.258,5.913-1.405l.239-.048a315.508,315.508,0,0,1,33.237-5.346c19.556-2.141,41.655,6.111,41.655,6.111s15.25,5.169,23.086.662a12.257,12.257,0,0,0,4.964-15.832,8.485,8.485,0,0,1-.373-.931,4.779,4.779,0,0,1,.737-4.331,7.059,7.059,0,0,0-.847-8.381,1.6,1.6,0,0,1-.256-2.256,1.623,1.623,0,0,1,.32-.305c2.422-1.964,4.079-5.327-.271-8.678s0-4.87,0-4.87,1.174,0,6.77-3.411,1.517-7.367.307-8.093-7.077-5.875-13.606-11.929-7.18-15.766-7.18-15.766-2.025-32.023-40.894-38.109c-19.93-3.111-41.136-1.118-57.06,1.565.373-.391.754-.783,1.136-1.164A85.212,85.212,0,0,1,171.2,85.208Z" fill="#ea9010"/>
    <path id="Path_351" data-name="Path 351" d="M40.846,76.726A15.08,15.08,0,0,1,35.593,79.8,231.107,231.107,0,0,1,1.406,88.814C7.33,87.409,11.174,86.1,11.174,86.1s10.078-4.284,3.167-17.275c0,0-3.092-4.657-11.016-4.214.345-1.415.736-2.793,1.153-4.2l.354-.046a143.271,143.271,0,0,1,18.876-1.378S39.233,58.5,43.264,66.5a8.271,8.271,0,0,1-2.418,10.23" fill="#582a5b"/>
    <path id="Path_352" data-name="Path 352" d="M77.5,121.967a57.752,57.752,0,0,1-16.053,1.481,16.02,16.02,0,0,0,9.2-6.09c3.39-5.589-6.667-12.61-6.667-12.61A52.964,52.964,0,0,0,35.168,98.1a86.232,86.232,0,0,1,38.98-7.208s17.786.875,21.418,12.824S77.5,121.967,77.5,121.967" fill="#582a5b"/>
    <path id="Path_353" data-name="Path 353" d="M4.788,60.364,3.279,64.61c.345-1.415.736-2.793,1.154-4.2Z" fill="#fff"/>
    <path id="Path_354" data-name="Path 354" d="M143.034,98.4c-5.588,3.411-6.77,3.411-6.77,3.411s-4.341,1.517,0,4.87-10.758,6.937-14.941,5.245c0,0,2.391,5.82,6,7.311s12.084,4.105,10,7.065a4.776,4.776,0,0,0-.736,4.33,8.218,8.218,0,0,0,.373.931A12.241,12.241,0,0,1,131.99,147.4c-7.842,4.479-23.086-.662-23.086-.662s-22.091-8.251-41.655-6.11a315.459,315.459,0,0,0-33.237,5.345l-.243.057c-.494.148-2.729.772-5.914,1.4A85.353,85.353,0,0,1,8.3,120.291a57.562,57.562,0,0,1,6.421-1.322,2.289,2.289,0,0,1,.438,0c1.527-.085,10.867-.364,29.94,2.877a109.087,109.087,0,0,0,16.372,1.583,57.489,57.489,0,0,0,16.053-1.481s21.671-6.314,18.059-18.26S74.164,90.864,74.164,90.864A86.247,86.247,0,0,0,35.175,98.08a73.585,73.585,0,0,0-11.427,6.343c-8.294,5.586-13.711,9.19-17.265,11.453a81.677,81.677,0,0,1-3.211-10.169A85.081,85.081,0,0,1,.864,88.944l.484-.112h.06A233.149,233.149,0,0,0,35.587,79.8a15.08,15.08,0,0,0,5.253-3.074,8.174,8.174,0,0,0,2.338-10.244c-4-8-19.557-7.515-19.557-7.515a143.454,143.454,0,0,0-18.84,1.4l-.353.046A83.852,83.852,0,0,1,8.255,50.176c.186-.419.381-.846.586-1.266a84.511,84.511,0,0,1,5.279-9.583A78.26,78.26,0,0,1,24.589,26.1c15.924-2.683,37.122-4.657,57.059-1.565,38.878,6.08,40.909,38.079,40.909,38.079s.652,9.7,7.179,15.766,12.4,11.175,13.607,11.929,5.3,4.648-.309,8.093" fill="#fff"/>
    <path id="Path_355" data-name="Path 355" d="M1.34,88.824l-.484.112L0,89.029.856,88.9Z" fill="#fff"/>
    <path id="Path_356" data-name="Path 356" d="M40.844,76.726A15.08,15.08,0,0,1,35.591,79.8,231.172,231.172,0,0,1,1.406,88.814H1.34l-.484.112Q.772,87.061.772,85.2a85.105,85.105,0,0,1,2.5-20.59c.346-1.415.737-2.793,1.154-4.2l.353-.046a143.3,143.3,0,0,1,18.876-1.378S39.185,58.5,43.216,66.5a8.206,8.206,0,0,1-2.372,10.226" fill="#582a5b"/>
    <path id="Path_357" data-name="Path 357" d="M77.5,121.967a57.752,57.752,0,0,1-16.053,1.481,109.271,109.271,0,0,1-16.325-1.6c-19.063-3.241-28.414-2.962-29.941-2.878a2.279,2.279,0,0,0-.437,0,57.742,57.742,0,0,0-6.421,1.322q-.989-2.188-1.863-4.442c3.558-2.264,8.978-5.829,17.257-11.454a73.6,73.6,0,0,1,11.428-6.343,86.253,86.253,0,0,1,38.992-7.2s17.786.875,21.418,12.824-18.055,18.3-18.055,18.3" fill="#582a5b"/>
    <path id="Path_358" data-name="Path 358" d="M171.2,85.18v85.212H85.977a84.893,84.893,0,0,1-58.123-22.919c3.184-.634,5.417-1.258,5.913-1.405l.239-.048a315.508,315.508,0,0,1,33.237-5.346c19.556-2.141,41.655,6.111,41.655,6.111s15.25,5.169,23.086.662a12.257,12.257,0,0,0,4.964-15.832,8.485,8.485,0,0,1-.373-.931,4.779,4.779,0,0,1,.737-4.331c2.086-2.979-2.37-4.183-3.823-5.59s-.789-7.8-.789-7.8c2.422-1.964,7.908-2.881,3.56-6.234s0-4.87,0-4.87,1.174,0,6.77-3.411,1.517-7.367.307-8.093-7.077-5.875-13.606-11.929-7.18-15.766-7.18-15.766-2.027-32.021-40.9-38.107c-19.93-3.111-41.136-1.118-57.06,1.565.373-.391.754-.783,1.136-1.164A85.212,85.212,0,0,1,171.2,85.208Z" fill="#582a5b"/>
    <path id="Path_359" data-name="Path 359" d="M40.846,76.726A15.08,15.08,0,0,1,35.593,79.8,231.107,231.107,0,0,1,1.406,88.814C7.33,87.409,11.174,86.1,11.174,86.1s10.078-4.284,3.167-17.275c0,0-3.092-4.657-11.016-4.214.345-1.415.736-2.793,1.153-4.2l.354-.046a143.271,143.271,0,0,1,18.876-1.378S39.233,58.5,43.264,66.5a8.271,8.271,0,0,1-2.418,10.23" fill="#ea9010"/>
    <path id="Path_360" data-name="Path 360" d="M77.5,121.967a57.752,57.752,0,0,1-16.053,1.481,16.02,16.02,0,0,0,9.2-6.09c3.39-5.589-6.667-12.61-6.667-12.61A52.964,52.964,0,0,0,35.168,98.1a86.232,86.232,0,0,1,38.98-7.208s17.786.875,21.418,12.824S77.5,121.967,77.5,121.967" fill="#ea9010"/>
    <path id="Path_361" data-name="Path 361" d="M4.788,60.364,3.279,64.61c.345-1.415.736-2.793,1.154-4.2Z" fill="#fff"/>
    <path id="Path_362" data-name="Path 362" d="M143.034,98.4c-5.588,3.411-6.77,3.411-6.77,3.411s-4.341,1.517,0,4.87S120.01,115.632,118.455,111c0,0,5.934,15.923,3,20.572-21.4.032,14.648-2.408,15.128-.931a8.22,8.22,0,0,0,.373.931A12.241,12.241,0,0,1,131.99,147.4c-7.842,4.479-23.086-.662-23.086-.662s-22.091-8.251-41.655-6.11a315.519,315.519,0,0,0-33.238,5.345l-.242.057c-.494.148-2.729.772-5.914,1.4A85.35,85.35,0,0,1,8.3,120.291a57.562,57.562,0,0,1,6.421-1.322,2.289,2.289,0,0,1,.438,0c1.527-.085,10.867-.364,29.94,2.877a109.087,109.087,0,0,0,16.372,1.583,57.489,57.489,0,0,0,16.053-1.481s21.671-6.314,18.059-18.26S74.164,90.864,74.164,90.864A86.247,86.247,0,0,0,35.175,98.08a73.585,73.585,0,0,0-11.427,6.343c-8.294,5.586-13.711,9.19-17.265,11.453a81.677,81.677,0,0,1-3.211-10.169A85.081,85.081,0,0,1,.864,88.944l.484-.112h.06A233.149,233.149,0,0,0,35.587,79.8a15.08,15.08,0,0,0,5.253-3.074,8.174,8.174,0,0,0,2.338-10.244c-4-8-19.557-7.515-19.557-7.515a143.454,143.454,0,0,0-18.84,1.4l-.353.046A83.852,83.852,0,0,1,8.255,50.176c.186-.419.381-.846.586-1.266a84.511,84.511,0,0,1,5.279-9.583A78.26,78.26,0,0,1,24.589,26.1c15.924-2.683,37.122-4.657,57.059-1.565,38.878,6.08,40.909,38.079,40.909,38.079s.652,9.7,7.179,15.766,12.4,11.175,13.607,11.929,5.3,4.648-.309,8.093" fill="#fff"/>
    <path id="Path_363" data-name="Path 363" d="M1.34,88.824l-.484.112L0,89.029.856,88.9Z" fill="#fff"/>
  </g>
</svg>
