<svg id="Group_452" data-name="Group 452" xmlns="http://www.w3.org/2000/svg" xmlns:xlink="http://www.w3.org/1999/xlink" width="616.318" height="170.392" viewBox="0 0 616.318 170.392">
  <defs>
    <clipPath id="clip-path">
      <rect id="Rectangle_236" data-name="Rectangle 236" width="616.318" height="170.392" fill="none"/>
    </clipPath>
  </defs>
  <g id="Group_451" data-name="Group 451" clip-path="url(#clip-path)">
    <path id="Path_347" data-name="Path 347" d="M380.507,153.215c-7.062,0-10.514-2.97-10.514-2.97,0,13.805.642,15.33,2.007,17.818l.722,1.365s-2.809-.161-9.632-.161c-6.9,0-9.711.161-9.711.161l.722-1.365c1.365-2.488,2.007-3.211,2.007-22.312v-18.38c0-13.885-.723-16.132-2.007-18.46l-.722-1.364,16.293-2.007-.321,10.113c1.766-6.421,5.538-10.434,13.8-10.434,4.816,0,17.257,1.284,17.257,23.035,0,19.262-9.472,24.961-19.906,24.961m-3.692-39.328c-2.809,0-5.056.562-6.822,2.649v27.048s1.685,1.765,6.02,1.765c7.384,0,9.952-5.939,9.952-16.132,0-7.866-1.847-15.33-9.15-15.33"/>
    <path id="Path_348" data-name="Path 348" d="M430.991,116.375c-5.859,0-7.224,3.292-7.224,3.292v10.915c0,17.577.883,18.139,2.167,20.385l.883,1.445s-3.13-.161-9.952-.161-9.631.161-9.631.161l.722-1.364c1.284-2.327,2.007-2.97,2.007-20.466v-3.211c0-13.885-.723-16.133-2.007-18.46l-.722-1.364,16.212-2.007-.4,13.564c1.765-12.279,7.865-13.885,11.476-13.885,4.174,0,5.538,1.445,5.538,1.445s-.16,2.007-.16,6.822c0,5.377.16,7.465.16,7.465a10.481,10.481,0,0,0-9.069-4.576"/>
    <path id="Path_349" data-name="Path 349" d="M466.066,153.295c-15.009,0-22.874-8.909-22.874-23.275,0-14.126,7.062-24.8,23.516-24.8,15.009,0,22.874,8.91,22.874,23.356,0,14.125-7.062,24.72-23.516,24.72m.241-39.889c-6.341,0-8.588,4.9-8.588,16.212,0,11.558,2.327,15.571,8.748,15.571,6.341,0,8.588-4.9,8.588-16.212,0-11.558-2.327-15.571-8.748-15.571"/>
    <path id="Path_350" data-name="Path 350" d="M533.005,152.252c-6.9,0-9.711.16-9.711.16l.723-1.364c1.364-2.488,2.006-3.451,2.006-20.467V115.573H512.779V130.1c0,15.891.4,17.818,2.167,20.868l.883,1.444s-2.808-.16-9.872-.16c-6.822,0-9.792.16-9.792.16l.8-1.364c1.365-2.488,2.007-3.451,2.007-20.467v-15.57h-5.137c4.174-3.451,4.895-6.581,5.057-9.551l.08-1.2a15.384,15.384,0,0,1,1.685-6.34c3.693-7.144,12.682-8.749,21.831-8.749,7.866,0,18.54.321,18.54,7.063,0,3.692-2.728,5.859-8.026,5.859-6.661,0-7.785-3.451-7.785-5.779a3.262,3.262,0,0,1,.161-.8,13.3,13.3,0,0,0-3.211-.24c-4.013,0-6.421,1.043-7.945,3.05-1.446,1.685-1.686,4.093-1.686,6.18v3.371h19.1c6.421,0,8.989-1.044,8.989-1.044s-.722,5.137-.722,20.467v3.29c0,14.849.321,17.256,2.006,20.467l.723,1.364s-2.81-.16-9.632-.16"/>
    <path id="Path_351" data-name="Path 351" d="M562.944,131.545c0,7.7,3.933,13.243,12.6,13.243,10.514,0,13.4-4.415,13.644-4.816,0,6.02-4.414,13.323-18.38,13.323-8.748,0-21.911-3.611-21.911-23.676,0-15.811,7.865-24.319,21.51-24.319,19.825,0,20.387,16.213,20.387,25.443v.8Zm7.464-19.423c-5.217,0-7.384,3.451-7.464,13.645l14.366-1.525c0-6.983-.4-12.12-6.9-12.12"/>
    <path id="Path_352" data-name="Path 352" d="M606.768,152.252c-6.9,0-9.712.16-9.712.16l.723-1.364c1.364-2.488,2.006-3.531,2.006-20.467v-19.1c0-14.046-.642-16.374-2.006-18.942l-.723-1.365,16.774-2.006s-.241,8.187-.241,15.812v25.6c0,16.775.643,17.9,2.007,20.467l.723,1.364s-2.81-.16-9.551-.16"/>
    <path id="Path_353" data-name="Path 353" d="M239.4,86.758c-4.174,1.284-8.668,1.444-15.811,1.444-2.89,0-8.99-.16-11.959-.16-5.3,0-7.866.16-7.866.16l.722-1.364c1.606-2.97,2.007-3.612,2.007-27.69,0-23.356-.321-23.677-2.007-26.888l-.722-1.364s2.729.16,6.983.16c2.648,0,8.588-.16,11.076-.16,13.163,0,25.684.561,25.684,13.724,0,10.193-8.348,13.163-13.565,13.805,7.705.241,15.41,3.612,15.41,13.885,0,8.99-5.3,13.083-9.952,14.448M223.109,38.119a25.2,25.2,0,0,0-3.211.161V55.215a24.541,24.541,0,0,0,3.452.16,19.447,19.447,0,0,0,4.9-.642c3.05-.883,5.3-3.451,5.3-8.186,0-7.063-4.254-8.428-10.434-8.428m.883,24.48c-2.327,0-4.094.161-4.094.161v17.9a29.433,29.433,0,0,0,4.254.16,15.47,15.47,0,0,0,6.341-.963c2.488-.963,4.575-3.13,4.575-8.347,0-7.223-4.495-8.909-11.076-8.909"/>
    <path id="Path_354" data-name="Path 354" d="M286.276,88.684l.4-11.157C284.832,86.035,279.615,89,272.471,89c-6.26,0-10.113-1.926-12.2-5.7-1.927-3.372-2.168-7.064-2.168-16.454V63.161c0-14.527-.4-15.892-1.765-18.46l-.722-1.365,16.774-2.006s-.481,6.742-.481,17.015v5.3c0,9.311.321,12.2,1.364,13.885.723,1.365,2.167,2.81,5.778,2.81,5.94,0,7.064-3.532,7.064-3.532V63.161c0-14.527-.4-15.892-1.766-18.46l-.722-1.365,16.694-2.006s-.4,8.829-.4,17.015v8.508c0,13.885.722,16.132,2.006,18.46l.723,1.364Z"/>
    <path id="Path_355" data-name="Path 355" d="M333.552,52.165c-5.859,0-7.224,3.291-7.224,3.291V66.371c0,17.577.883,18.139,2.167,20.387l.883,1.444s-3.13-.16-9.952-.16-9.631.16-9.631.16l.722-1.364c1.284-2.328,2.007-2.97,2.007-20.467v-3.21c0-13.886-.723-16.133-2.007-18.46l-.722-1.365,16.212-2.006-.4,13.564c1.765-12.28,7.865-13.885,11.476-13.885,4.174,0,5.538,1.445,5.538,1.445s-.16,2.006-.16,6.821c0,5.378.16,7.465.16,7.465a10.48,10.48,0,0,0-9.069-4.575"/>
    <path id="Path_356" data-name="Path 356" d="M359.8,67.334c0,7.705,3.933,13.244,12.6,13.244,10.514,0,13.4-4.415,13.644-4.816,0,6.019-4.414,13.323-18.38,13.323-8.748,0-21.911-3.611-21.911-23.677,0-15.811,7.865-24.319,21.51-24.319,19.825,0,20.387,16.213,20.387,25.443v.8Zm7.464-19.423c-5.217,0-7.384,3.451-7.464,13.645l14.366-1.525c0-6.983-.4-12.12-6.9-12.12"/>
    <path id="Path_357" data-name="Path 357" d="M420.636,88.764l.4-9.631C418.871,87.881,412.691,89,407.714,89c-11.236,0-14.126-7.785-14.126-14.046,0-14.126,12.12-14.768,19.1-14.768a55.963,55.963,0,0,1,7.7.482V58.506c0-2.569-.08-5.137-1.605-6.9-1.285-1.444-3.612-2.408-8.187-2.408-3.692,0-9.149.964-12.52,5.378,0,0,.24-2.167.24-5.619a47.356,47.356,0,0,0-.24-5.457s4.975-2.408,16.453-2.408c10.113,0,14.367,2.488,16.373,5.056,2.889,3.452,2.969,8.107,2.969,13.4,0,4.9-.08,7.063-.08,14.447,0,5.859.482,8.749,1.927,11.4l.722,1.365Zm-.24-21.831a20.583,20.583,0,0,0-4.094-.241c-3.13,0-8.909.161-8.909,7.3,0,5.057,2.97,7.224,6.582,7.224,5.057,0,6.421-2.809,6.421-2.809Z"/>
    <path id="Path_358" data-name="Path 358" d="M473.37,88.684l.4-11.157C471.926,86.035,466.709,89,459.565,89c-6.26,0-10.113-1.926-12.2-5.7-1.927-3.372-2.168-7.064-2.168-16.454V63.161c0-14.527-.4-15.892-1.765-18.46l-.722-1.365,16.774-2.006S459,48.072,459,58.345v5.3c0,9.311.321,12.2,1.364,13.885.723,1.365,2.167,2.81,5.778,2.81,5.94,0,7.064-3.532,7.064-3.532V63.161c0-14.527-.4-15.892-1.766-18.46l-.722-1.365,16.694-2.006s-.4,8.829-.4,17.015v8.508c0,13.885.722,16.132,2.006,18.46l.723,1.364Z"/>
    <path id="Path_359" data-name="Path 359" d="M132.241,102.872c7.715,0,13.97,5.628,13.97,12.571s-6.255,12.572-13.97,12.572-13.97-5.629-13.97-12.572,6.255-12.571,13.97-12.571" fill="#582a5b"/>
    <path id="Path_360" data-name="Path 360" d="M40.844,76.726A15.08,15.08,0,0,1,35.591,79.8,231.172,231.172,0,0,1,1.406,88.814H1.34l-.484.112Q.772,87.061.772,85.2a85.105,85.105,0,0,1,2.5-20.59c.346-1.415.737-2.793,1.154-4.2l.353-.046a143.3,143.3,0,0,1,18.876-1.378S39.185,58.5,43.216,66.5a8.206,8.206,0,0,1-2.372,10.226" fill="#ea9010"/>
    <path id="Path_361" data-name="Path 361" d="M77.5,121.967a57.752,57.752,0,0,1-16.053,1.481,109.271,109.271,0,0,1-16.325-1.6c-19.063-3.241-28.414-2.962-29.941-2.878a2.279,2.279,0,0,0-.437,0,57.742,57.742,0,0,0-6.421,1.322q-.989-2.188-1.863-4.442c3.558-2.264,8.978-5.829,17.257-11.454a73.6,73.6,0,0,1,11.428-6.343,86.253,86.253,0,0,1,38.992-7.2s17.786.875,21.418,12.824-18.055,18.3-18.055,18.3" fill="#ea9010"/>
    <path id="Path_362" data-name="Path 362" d="M171.2,85.18v85.212H85.977a84.893,84.893,0,0,1-58.123-22.919c3.184-.634,5.417-1.258,5.913-1.405l.239-.048a315.508,315.508,0,0,1,33.237-5.346c19.556-2.141,41.655,6.111,41.655,6.111s15.25,5.169,23.086.662a12.257,12.257,0,0,0,4.964-15.832,8.485,8.485,0,0,1-.373-.931,4.779,4.779,0,0,1,.737-4.331,7.059,7.059,0,0,0-.847-8.381,1.6,1.6,0,0,1-.256-2.256,1.623,1.623,0,0,1,.32-.305c2.422-1.964,4.079-5.327-.271-8.678s0-4.87,0-4.87,1.174,0,6.77-3.411,1.517-7.367.307-8.093-7.077-5.875-13.606-11.929-7.18-15.766-7.18-15.766-2.025-32.023-40.894-38.109c-19.93-3.111-41.136-1.118-57.06,1.565.373-.391.754-.783,1.136-1.164A85.212,85.212,0,0,1,171.2,85.208Z" fill="#ea9010"/>
    <path id="Path_363" data-name="Path 363" d="M40.846,76.726A15.08,15.08,0,0,1,35.593,79.8,231.107,231.107,0,0,1,1.406,88.814C7.33,87.409,11.174,86.1,11.174,86.1s10.078-4.284,3.167-17.275c0,0-3.092-4.657-11.016-4.214.345-1.415.736-2.793,1.153-4.2l.354-.046a143.271,143.271,0,0,1,18.876-1.378S39.233,58.5,43.264,66.5a8.271,8.271,0,0,1-2.418,10.23" fill="#582a5b"/>
    <path id="Path_364" data-name="Path 364" d="M77.5,121.967a57.752,57.752,0,0,1-16.053,1.481,16.02,16.02,0,0,0,9.2-6.09c3.39-5.589-6.667-12.61-6.667-12.61A52.964,52.964,0,0,0,35.168,98.1a86.232,86.232,0,0,1,38.98-7.208s17.786.875,21.418,12.824S77.5,121.967,77.5,121.967" fill="#582a5b"/>
    <path id="Path_365" data-name="Path 365" d="M4.788,60.364,3.279,64.61c.345-1.415.736-2.793,1.154-4.2Z" fill="#fff"/>
    <path id="Path_366" data-name="Path 366" d="M143.034,98.4c-5.588,3.411-6.77,3.411-6.77,3.411s-4.341,1.517,0,4.87-10.758,6.937-14.941,5.245c0,0,2.391,5.82,6,7.311s12.084,4.105,10,7.065a4.776,4.776,0,0,0-.736,4.33,8.218,8.218,0,0,0,.373.931A12.241,12.241,0,0,1,131.99,147.4c-7.842,4.479-23.086-.662-23.086-.662s-22.091-8.251-41.655-6.11a315.459,315.459,0,0,0-33.237,5.345l-.243.057c-.494.148-2.729.772-5.914,1.4A85.353,85.353,0,0,1,8.3,120.291a57.562,57.562,0,0,1,6.421-1.322,2.289,2.289,0,0,1,.438,0c1.527-.085,10.867-.364,29.94,2.877a109.087,109.087,0,0,0,16.372,1.583,57.489,57.489,0,0,0,16.053-1.481s21.671-6.314,18.059-18.26S74.164,90.864,74.164,90.864A86.247,86.247,0,0,0,35.175,98.08a73.585,73.585,0,0,0-11.427,6.343c-8.294,5.586-13.711,9.19-17.265,11.453a81.677,81.677,0,0,1-3.211-10.169A85.081,85.081,0,0,1,.864,88.944l.484-.112h.06A233.149,233.149,0,0,0,35.587,79.8a15.08,15.08,0,0,0,5.253-3.074,8.174,8.174,0,0,0,2.338-10.244c-4-8-19.557-7.515-19.557-7.515a143.454,143.454,0,0,0-18.84,1.4l-.353.046A83.852,83.852,0,0,1,8.255,50.176c.186-.419.381-.846.586-1.266a84.511,84.511,0,0,1,5.279-9.583A78.26,78.26,0,0,1,24.589,26.1c15.924-2.683,37.122-4.657,57.059-1.565,38.878,6.08,40.909,38.079,40.909,38.079s.652,9.7,7.179,15.766,12.4,11.175,13.607,11.929,5.3,4.648-.309,8.093" fill="#fff"/>
    <path id="Path_367" data-name="Path 367" d="M1.34,88.824l-.484.112L0,89.029.856,88.9Z" fill="#fff"/>
    <path id="Path_368" data-name="Path 368" d="M40.844,76.726A15.08,15.08,0,0,1,35.591,79.8,231.172,231.172,0,0,1,1.406,88.814H1.34l-.484.112Q.772,87.061.772,85.2a85.105,85.105,0,0,1,2.5-20.59c.346-1.415.737-2.793,1.154-4.2l.353-.046a143.3,143.3,0,0,1,18.876-1.378S39.185,58.5,43.216,66.5a8.206,8.206,0,0,1-2.372,10.226" fill="#582a5b"/>
    <path id="Path_369" data-name="Path 369" d="M77.5,121.967a57.752,57.752,0,0,1-16.053,1.481,109.271,109.271,0,0,1-16.325-1.6c-19.063-3.241-28.414-2.962-29.941-2.878a2.279,2.279,0,0,0-.437,0,57.742,57.742,0,0,0-6.421,1.322q-.989-2.188-1.863-4.442c3.558-2.264,8.978-5.829,17.257-11.454a73.6,73.6,0,0,1,11.428-6.343,86.253,86.253,0,0,1,38.992-7.2s17.786.875,21.418,12.824-18.055,18.3-18.055,18.3" fill="#582a5b"/>
    <path id="Path_370" data-name="Path 370" d="M171.2,85.18v85.212H85.977a84.893,84.893,0,0,1-58.123-22.919c3.184-.634,5.417-1.258,5.913-1.405l.239-.048a315.508,315.508,0,0,1,33.237-5.346c19.556-2.141,41.655,6.111,41.655,6.111s15.25,5.169,23.086.662a12.257,12.257,0,0,0,4.964-15.832,8.485,8.485,0,0,1-.373-.931,4.779,4.779,0,0,1,.737-4.331c2.086-2.979-2.37-4.183-3.823-5.59s-.789-7.8-.789-7.8c2.422-1.964,7.908-2.881,3.56-6.234s0-4.87,0-4.87,1.174,0,6.77-3.411,1.517-7.367.307-8.093-7.077-5.875-13.606-11.929-7.18-15.766-7.18-15.766-2.027-32.021-40.9-38.107c-19.93-3.111-41.136-1.118-57.06,1.565.373-.391.754-.783,1.136-1.164A85.212,85.212,0,0,1,171.2,85.208Z" fill="#582a5b"/>
    <path id="Path_371" data-name="Path 371" d="M40.846,76.726A15.08,15.08,0,0,1,35.593,79.8,231.107,231.107,0,0,1,1.406,88.814C7.33,87.409,11.174,86.1,11.174,86.1s10.078-4.284,3.167-17.275c0,0-3.092-4.657-11.016-4.214.345-1.415.736-2.793,1.153-4.2l.354-.046a143.271,143.271,0,0,1,18.876-1.378S39.233,58.5,43.264,66.5a8.271,8.271,0,0,1-2.418,10.23" fill="#ea9010"/>
    <path id="Path_372" data-name="Path 372" d="M77.5,121.967a57.752,57.752,0,0,1-16.053,1.481,16.02,16.02,0,0,0,9.2-6.09c3.39-5.589-6.667-12.61-6.667-12.61A52.964,52.964,0,0,0,35.168,98.1a86.232,86.232,0,0,1,38.98-7.208s17.786.875,21.418,12.824S77.5,121.967,77.5,121.967" fill="#ea9010"/>
    <path id="Path_373" data-name="Path 373" d="M4.788,60.364,3.279,64.61c.345-1.415.736-2.793,1.154-4.2Z" fill="#fff"/>
    <path id="Path_374" data-name="Path 374" d="M143.034,98.4c-5.588,3.411-6.77,3.411-6.77,3.411s-4.341,1.517,0,4.87S120.01,115.632,118.455,111c0,0,5.934,15.923,3,20.572-21.4.032,14.648-2.408,15.128-.931a8.22,8.22,0,0,0,.373.931A12.241,12.241,0,0,1,131.99,147.4c-7.842,4.479-23.086-.662-23.086-.662s-22.091-8.251-41.655-6.11a315.519,315.519,0,0,0-33.238,5.345l-.242.057c-.494.148-2.729.772-5.914,1.4A85.35,85.35,0,0,1,8.3,120.291a57.562,57.562,0,0,1,6.421-1.322,2.289,2.289,0,0,1,.438,0c1.527-.085,10.867-.364,29.94,2.877a109.087,109.087,0,0,0,16.372,1.583,57.489,57.489,0,0,0,16.053-1.481s21.671-6.314,18.059-18.26S74.164,90.864,74.164,90.864A86.247,86.247,0,0,0,35.175,98.08a73.585,73.585,0,0,0-11.427,6.343c-8.294,5.586-13.711,9.19-17.265,11.453a81.677,81.677,0,0,1-3.211-10.169A85.081,85.081,0,0,1,.864,88.944l.484-.112h.06A233.149,233.149,0,0,0,35.587,79.8a15.08,15.08,0,0,0,5.253-3.074,8.174,8.174,0,0,0,2.338-10.244c-4-8-19.557-7.515-19.557-7.515a143.454,143.454,0,0,0-18.84,1.4l-.353.046A83.852,83.852,0,0,1,8.255,50.176c.186-.419.381-.846.586-1.266a84.511,84.511,0,0,1,5.279-9.583A78.26,78.26,0,0,1,24.589,26.1c15.924-2.683,37.122-4.657,57.059-1.565,38.878,6.08,40.909,38.079,40.909,38.079s.652,9.7,7.179,15.766,12.4,11.175,13.607,11.929,5.3,4.648-.309,8.093" fill="#fff"/>
    <path id="Path_375" data-name="Path 375" d="M1.34,88.824l-.484.112L0,89.029.856,88.9Z" fill="#fff"/>
  </g>
</svg>
